memory_initialization_radix=16;
memory_initialization_vector=
4D546864,
00000006,
00000001,
00604D54,
726B0000,
011500FF,
03065069,
616E6F00,
00FF5804,
04022408,
00FF5804,
04022408,
00C00100,
B0076E00,
B00A4000,
B0640000,
B0640000,
B0650000,
B0650000,
B0060000,
B0060C00,
B0260000,
B0260000,
B0076E00,
90375000,
90434800,
90475616,
80370004,
80430001,
80470000,
904A4300,
904D5112,
804A0000,
804D001D,
90374B00,
904A4300,
904D4D18,
80370000,
804A0000,
804D0000,
90374C00,
904A4400,
904D521E,
80370000,
804A0002,
804D0000,
90394B00,
90484300,
904C511D,
80390000,
80480002,
804C0000,
903B4B00,
90474300,
904A511F,
803B0000,
80470001,
804A0000,
903C4E00,
90434600,
90485413,
803C0005,
80430001,
80480000,
90404B12,
80400005,
90374B13,
80370005,
90404B16,
80400002,
90304C00,
903C4C12,
80300000,
803C0000,
FF2F0000;