memory_initialization_radix=16;
memory_initialization_vector=
4D546864,
00000006,
00000001,
00604D54,
726B0000,
09AB00FF,
03074D65,
6C6F6479,
0000FF58,
04040224,
0800FF58,
04040224,
0800C01D,
00E00040,
00B0060C,
00B00768,
00B00A38,
00B05B00,
00B05C00,
00B05D00,
00B05F00,
00B06400,
00B06500,
00904C5F,
18804C50,
00904C5F,
18804C50,
18904C5F,
18804C50,
1890485F,
18804850,
00904C5F,
18804C50,
18904F5F,
18804F50,
81289048,
5F188048,
50309043,
5F188043,
50309040,
5F188040,
50309045,
5F188045,
50189047,
5F188047,
50189046,
5F189045,
5F008046,
50188045,
50189043,
5F188043,
5000904C,
5F18804C,
5018904F,
5F18804F,
50009051,
5F188051,
5018904D,
5F18804D,
5000904F,
5F18804F,
5018904C,
5F18804C,
50189048,
5F188048,
5000904A,
5F189047,
5F00804A,
50188047,
50309048,
5F188048,
50309043,
5F188043,
50309040,
5F188040,
50309045,
5F188045,
50189047,
5F188047,
50189046,
5F189045,
5F008046,
50188045,
50189043,
5F188043,
5000904C,
5F18804C,
5018904F,
5F18804F,
50009051,
5F188051,
5018904D,
5F18804D,
5000904F,
5F18804F,
5018904C,
5F18804C,
50189048,
5F188048,
5000904A,
5F189047,
5F00804A,
50188047,
5060904F,
5F18904E,
5F00804F,
5018904D,
5F00804E,
5018904B,
5F00804D,
5018804B,
5018904C,
5F18804C,
50189044,
5F188044,
50009045,
5F188045,
50009048,
5F188048,
50189045,
5F188045,
50009048,
5F188048,
5000904A,
5F18804A,
5030904F,
5F18904E,
5F00804F,
5018904D,
5F00804E,
5018904B,
5F00804D,
5018804B,
5018904C,
5F18804C,
50189054,
5F188054,
50189054,
5F188054,
50009054,
5F188054,
5078904F,
5F18904E,
5F00804F,
5018904D,
5F00804E,
5018904B,
5F00804D,
5018804B,
5018904C,
5F18804C,
50189044,
5F188044,
50009045,
5F188045,
50009048,
5F188048,
50189045,
5F188045,
50009048,
5F188048,
5000904A,
5F18804A,
5030904B,
5F18804B,
5030904A,
5F18804A,
50309048,
5F188048,
50815890,
4F5F1890,
4E5F0080,
4F501890,
4D5F0080,
4E501890,
4B5F0080,
4D501880,
4B501890,
4C5F1880,
4C501890,
445F1880,
44500090,
455F1880,
45500090,
485F1880,
48501890,
455F1880,
45500090,
485F1880,
48500090,
4A5F1880,
4A503090,
4F5F1890,
4E5F0080,
4F501890,
4D5F0080,
4E501890,
4B5F0080,
4D501880,
4B501890,
4C5F1880,
4C501890,
545F1880,
54501890,
545F1880,
54500090,
545F1880,
54507890,
4F5F1890,
4E5F0080,
4F501890,
4D5F0080,
4E501890,
4B5F0080,
4D501880,
4B501890,
4C5F1880,
4C501890,
445F1880,
44500090,
455F1880,
45500090,
485F1880,
48501890,
455F1880,
45500090,
485F1880,
48500090,
4A5F1880,
4A503090,
4B5F1880,
4B503090,
4A5F1880,
4A503090,
485F1880,
48508128,
90485F18,
80485000,
90485F18,
80485018,
90485F18,
80485018,
90485F18,
80485000,
904A5F18,
804A5018,
904C5F18,
90485F00,
804C5018,
80485018,
90455F18,
90435F00,
80455018,
80435048,
90485F18,
80485000,
90485F18,
80485018,
90485F18,
80485018,
90485F18,
80485000,
904A5F18,
804A5000,
904C5F18,
804C5081,
4090485F,
18804850,
0090485F,
18804850,
1890485F,
18804850,
1890485F,
18804850,
00904A5F,
18804A50,
18904C5F,
1890485F,
00804C50,
18804850,
1890455F,
1890435F,
00804550,
18804350,
48904C5F,
18804C50,
00904C5F,
18804C50,
18904C5F,
18804C50,
1890485F,
18804850,
00904C5F,
18804C50,
18904F5F,
18804F50,
81289048,
5F188048,
50309043,
5F188043,
50309040,
5F188040,
50309045,
5F188045,
50189047,
5F188047,
50189046,
5F189045,
5F008046,
50188045,
50189043,
5F188043,
5000904C,
5F18804C,
5018904F,
5F18804F,
50009051,
5F188051,
5018904D,
5F18804D,
5000904F,
5F18804F,
5018904C,
5F18804C,
50189048,
5F188048,
5000904A,
5F189047,
5F00804A,
50188047,
50309048,
5F188048,
50309043,
5F188043,
50309040,
5F188040,
50309045,
5F188045,
50189047,
5F188047,
50189046,
5F189045,
5F008046,
50188045,
50189043,
5F188043,
5000904C,
5F18804C,
5018904F,
5F18804F,
50009051,
5F188051,
5018904D,
5F18804D,
5000904F,
5F18804F,
5018904C,
5F18804C,
50189048,
5F188048,
5000904A,
5F189047,
5F00804A,
50188047,
5030904C,
5F189048,
5F00804C,
50188048,
50189043,
5F188043,
50309044,
5F188044,
50189045,
5F188045,
5000904D,
5F18804D,
5018904D,
5F189045,
5F00804D,
50188045,
50489047,
5F188047,
50009051,
5F188051,
50189051,
5F188051,
50009051,
5F18904F,
5F008051,
5018804F,
5018904D,
5F18904C,
5F00804D,
50189048,
5F00804C,
50188048,
50189045,
5F189043,
5F008045,
50188043,
5048904C,
5F189048,
5F00804C,
50188048,
50189043,
5F188043,
50309044,
5F188044,
50189045,
5F188045,
5000904D,
5F18804D,
5018904D,
5F189045,
5F00804D,
50188045,
50489047,
5F188047,
5000904D,
5F18804D,
5018904D,
5F18804D,
5000904D,
5F18904C,
5F00804D,
5018804C,
5018904A,
5F189048,
5F00804A,
50188048,
50812890,
4C5F1890,
485F0080,
4C501880,
48501890,
435F1880,
43503090,
445F1880,
44501890,
455F1880,
45500090,
4D5F1880,
4D501890,
4D5F1890,
455F0080,
4D501880,
45504890,
475F1880,
47500090,
515F1880,
51501890,
515F1880,
51500090,
515F1890,
4F5F0080,
51501880,
4F501890,
4D5F1890,
4C5F0080,
4D501890,
485F0080,
4C501880,
48501890,
455F1890,
435F0080,
45501880,
43504890,
4C5F1890,
485F0080,
4C501880,
48501890,
435F1880,
43503090,
445F1880,
44501890,
455F1880,
45500090,
4D5F1880,
4D501890,
4D5F1890,
455F0080,
4D501880,
45504890,
475F1880,
47500090,
4D5F1880,
4D501890,
4D5F1880,
4D500090,
4D5F1890,
4C5F0080,
4D501880,
4C501890,
4A5F1890,
485F0080,
4A501880,
48508128,
90485F18,
80485000,
90485F18,
80485018,
90485F18,
80485018,
90485F18,
80485000,
904A5F18,
804A5018,
904C5F18,
90485F00,
804C5018,
80485018,
90455F18,
90435F00,
80455018,
80435048,
90485F18,
80485000,
90485F18,
80485018,
90485F18,
80485018,
90485F18,
80485000,
904A5F18,
804A5000,
904C5F18,
804C5081,
4090485F,
18804850,
0090485F,
18804850,
1890485F,
18804850,
1890485F,
18804850,
00904A5F,
18804A50,
18904C5F,
1890485F,
00804C50,
18804850,
1890455F,
1890435F,
00804550,
18804350,
48904C5F,
18804C50,
00904C5F,
18804C50,
18904C5F,
18804C50,
1890485F,
18804850,
00904C5F,
18804C50,
18904F5F,
18804F50,
8128904C,
5F189048,
5F00804C,
50188048,
50189043,
5F188043,
50309044,
5F188044,
50189045,
5F188045,
5000904D,
5F18804D,
5018904D,
5F189045,
5F00804D,
50188045,
50489047,
5F188047,
50009051,
5F188051,
50189051,
5F188051,
50009051,
5F18904F,
5F008051,
5018804F,
5018904D,
5F18904C,
5F00804D,
50189048,
5F00804C,
50188048,
50189045,
5F189043,
5F008045,
50188043,
5048904C,
5F189048,
5F00804C,
50188048,
50189043,
5F188043,
50309044,
5F188044,
50189045,
5F188045,
5000904D,
5F18804D,
5018904D,
5F189045,
5F00804D,
50188045,
50489047,
5F188047,
5000904D,
5F18804D,
5018904D,
5F18804D,
5000904D,
5F18904C,
5F00804D,
5018804C,
5018904A,
5F189048,
5F00804A,
50188048,
5000FF2F,
00000000;